<svg xmlns="http://www.w3.org/2000/svg" viewBox="0 0 24 24" fill="currentColor">
  <path d="M12 8c1.1 0 2-.9 2-2s-.9-2-2-2-2 .9-2 2 .9 2 2 2zm0 2c-1.1 0-2 .9-2 2s.9 2 2 2 2-.9 2-2-.9-2-2-2zm0 6c-1.1 0-2 .9-2 2s.9 2 2 2 2-.9 2-2-.9-2-2-2z"/>
  <path d="M3 7.5C3 5.57 4.57 4 6.5 4S10 5.57 10 7.5v.5H6.5C5.45 8 4.55 8.9 4.55 9.95c0 .48.17.93.48 1.27l.18.09h7.03l3.29-3.28c.31-.32.76-.51 1.25-.51.51 0 .98.21 1.28.59.62.79.5 1.91-.29 2.5l-9.5 6.93c-.33.24-.79.24-1.11 0L.52 13.97c-.37-.17-.52-.6-.35-.95.16-.35.6-.5.95-.34L7 16l8-5.79V16c0 2.76-2.24 5-5 5H8c-2.76 0-5-2.24-5-5V7.5z"/>
</svg> 